# xmcd
#
# Track frame offsets:
#	150
#	7536
#	26690
#	47879
#	69315
#	95972
#	156820
#	189560
#	205412
#
# Disc length: 2982 seconds
#
# Revision: 2
# Processed by: cddbd v1.5.1PL2 Copyright (c) Steve Scherf et al.
# Submitted via: EasyCDDAExtractor 8.0.2.1
#
DISCID=720ba409
DTITLE=Dio - Guildhall Portsmouth 10-12-87 Disc 1
DYEAR=1987
DGENRE=Hard Rock
TTITLE0=Intro
TTITLE1=Stand Up And Shout
TTITLE2=Dream Evil
TTITLE3=Neon Knights
TTITLE4=Sunset Superman
TTITLE5=Naked In The Rain Incl Guitar Solo
TTITLE6=The Last In Line
TTITLE7=Drum Solo
TTITLE8=Heaven and Hell
EXTD=
EXTT0=
EXTT1=
EXTT2=
EXTT3=
EXTT4=
EXTT5=
EXTT6=
EXTT7=
EXTT8=
PLAYORDER=
